<?xml version="1.0" encoding="utf-8"?>
<!-- Generator: Adobe Illustrator 21.0.0, SVG Export Plug-In . SVG Version: 6.00 Build 0)  -->
<svg version="1.1" id="BACKGROUND_2" xmlns="http://www.w3.org/2000/svg" xmlns:xlink="http://www.w3.org/1999/xlink" x="0px"
	 y="0px" width="523.5px" height="481.7px" viewBox="0 0 523.5 481.7" style="enable-background:new 0 0 523.5 481.7;"
	 xml:space="preserve">
<style type="text/css">
	.st0{fill:#EBEEFF;}
</style>
<g>
	<path class="st0" d="M374.1,92.1c3,0,5.4-2.1,6-4.9l30.7,2.2c0,4.9,3.8,8.8,8.6,9.2l0.9,38.2c-4.6,0.6-8.1,4.5-8.1,9.2
		c0,5.2,4.2,9.3,9.3,9.3c5.2,0,9.3-4.2,9.3-9.3c0-4.9-3.8-8.9-8.6-9.3l-0.9-38.2c4.6-0.6,8.1-4.5,8.1-9.2c0-2.5-1-4.7-2.6-6.4
		l18-21.1c1.5,1,3.3,1.6,5.3,1.6c5,0,9-3.9,9.3-8.8l44.8-2.4c0.7,4.4,4.6,7.8,9.2,7.8c0.6,0,1.1-0.1,1.7-0.2l4.2,17.9
		c-0.8,0.4-1.4,1.2-1.4,2.2c0,1.3,1.1,2.4,2.4,2.4s2.4-1.1,2.4-2.4s-1.1-2.4-2.4-2.4c0,0,0,0-0.1,0L516,59.6c3.9-1.1,6.7-4.7,6.7-9
		c0-5.2-4.2-9.3-9.3-9.3c-5,0-9,3.9-9.3,8.8l-44.8,2.4c-0.7-4.2-4.1-7.5-8.5-7.8v-24c3-0.4,5.3-2.9,5.3-6c0-3.4-2.7-6.1-6.1-6.1
		s-6.1,2.7-6.1,6.1c0,3.1,2.3,5.7,5.3,6v24c-2.2,0.2-4.1,1.1-5.6,2.5l-36.8-31.9c1-1.5,1.7-3.3,1.7-5.3c0-5.2-4.2-9.3-9.3-9.3
		s-9.3,4.2-9.3,9.3c0,5.2,4.2,9.3,9.3,9.3c2.5,0,4.7-1,6.4-2.5l36.8,31.9c-1,1.5-1.7,3.3-1.7,5.3c0,2.5,1,4.7,2.6,6.4l-18,21.1
		c-1.5-1-3.3-1.6-5.3-1.6c-4.7,0-8.5,3.4-9.2,7.9l-30.7-2.2c-0.2-3.2-2.8-5.8-6.1-5.8c-3.4,0-6.1,2.7-6.1,6.1
		C368.1,89.4,370.8,92.1,374.1,92.1z"/>
	<path class="st0" d="M522.9,368.1c-0.7-0.8-2-0.9-2.9-0.2c-0.3,0.3-0.5,0.6-0.6,0.9l-28.6-0.8c-0.1-1.7-0.7-3.5-2-4.9
		c-0.4-0.4-0.8-0.8-1.2-1.1l12.1-19.2c2.8,1.5,6.3,1.2,8.8-1c3.2-2.8,3.4-7.7,0.6-10.9s-7.7-3.4-10.9-0.6c-3.2,2.8-3.4,7.7-0.6,10.9
		c0.4,0.4,0.8,0.8,1.2,1.1l-12.1,19.2c-2.8-1.5-6.3-1.2-8.8,1c-2.7,2.4-3.3,6.4-1.6,9.5l-10.1,6.4c-0.1-0.1-0.2-0.3-0.3-0.4
		c-2.2-2.5-6.1-2.7-8.6-0.5c-0.7,0.6-1.3,1.4-1.6,2.3l-36.5-11.2c0.4-1.8-0.1-3.9-1.4-5.4c-0.2-0.2-0.4-0.4-0.6-0.6l18.2-25.6
		c0.9,0.5,2,0.9,3.1,0.9c3.4,0,6.1-2.7,6.1-6.1s-2.7-6.1-6.1-6.1c-1,0-2,0.3-2.9,0.7l-17.5-24.8c1.2-1.1,2-2.7,2-4.5
		c0-2.5-1.5-4.6-3.6-5.6L426,260c0.3,0.1,0.7,0.1,1,0.1c0.9,0,1.7-0.2,2.5-0.5l13,24.1c-0.5,0.4-0.9,1.1-0.9,1.9
		c0,1.3,1.1,2.4,2.4,2.4s2.4-1.1,2.4-2.4s-1.1-2.4-2.4-2.4c-0.2,0-0.5,0-0.7,0.1l-13-24.1c1.7-1.1,2.8-3,2.8-5.1c0-0.1,0-0.1,0-0.2
		l14.8-1.7c0.3,1,1.2,1.7,2.3,1.7c1.3,0,2.4-1.1,2.4-2.4s-1.1-2.4-2.4-2.4s-2.3,1-2.4,2.2L433,253c-0.6-2.8-3-4.9-6-4.9
		c-2.3,0-4.4,1.3-5.4,3.3L383,236.7c0.1-0.5,0.2-0.9,0.2-1.4c0-1.7-0.7-3.3-1.9-4.4l7.7-9.5c0.3,0.2,0.7,0.3,1.1,0.3
		c1.3,0,2.4-1.1,2.4-2.4s-1.1-2.4-2.4-2.4s-2.4,1.1-2.4,2.4c0,0.6,0.2,1.1,0.5,1.5l-7.7,9.5c-1-0.7-2.2-1.1-3.5-1.1
		c-3.4,0-6.1,2.7-6.1,6.1c0,1.7,0.7,3.3,1.8,4.4l-17.6,23.1c-1.5-0.9-3.2-1.5-5-1.5c-3.9,0-7.3,2.4-8.7,5.9l-28.1-7.7
		c0.1-0.5,0.1-1,0.1-1.5c0-4.5-3.1-8.2-7.3-9.1l3.3-29.6l0,0c5.2,0,9.3-4.2,9.3-9.3c0-2.5-1-4.7-2.5-6.3l30.8-33.6
		c1.6,1.2,3.6,2,5.7,2c3.8,0,7-2.3,8.5-5.5l13.3,5.1c0,0.1,0,0.3,0,0.4c0,1.3,1.1,2.4,2.4,2.4s2.4-1.1,2.4-2.4s-1.1-2.4-2.4-2.4
		c-0.9,0-1.6,0.4-2,1.1l-13.3-5.1c0.3-0.9,0.5-1.9,0.5-2.9c0-5.2-4.2-9.3-9.3-9.3c-2.5,0-4.8,1-6.5,2.7L326.6,140
		c1-1.5,1.5-3.2,1.5-5.1c0-4.3-2.9-8-6.9-9l6.5-42.3c0.1,0,0.3,0,0.4,0c5.2,0,9.3-4.2,9.3-9.3c0-5.2-4.2-9.3-9.3-9.3
		c-1.9,0-3.6,0.6-5.1,1.5l-29-35.6c1.7-1.7,2.7-4,2.7-6.6c0-0.2,0-0.4,0-0.7l14.4-1.8c0.3,1,1.2,1.7,2.3,1.7c1.3,0,2.4-1.1,2.4-2.4
		s-1.1-2.4-2.4-2.4s-2.3,1-2.4,2.2l-14.4,1.8c-0.8-4.4-4.6-7.7-9.2-7.7c-5.2,0-9.3,4.2-9.3,9.3c0,5.2,4.2,9.3,9.3,9.3
		c1.9,0,3.6-0.6,5.1-1.5l29,35.6c-1.7,1.7-2.7,4-2.7,6.6c0,1.6,0.4,3.1,1.1,4.4l-20.4,13.1c-1.1-1.3-2.8-2.2-4.7-2.2
		c-2.7,0-5,1.8-5.8,4.2l-38-7.4c0-0.1,0-0.2,0-0.4c0-3.4-2.7-6.1-6.1-6.1c-3.4,0-6.1,2.7-6.1,6.1l0,0L200,91.1
		c-0.7-2.6-3.1-4.6-5.9-4.6c-0.5,0-1,0.1-1.4,0.2l-10.3-27.3c1.9-1,3.3-3.1,3.3-5.4c0-1.3-0.4-2.6-1.2-3.6l5.6-4.7
		c0.4,0.3,0.9,0.5,1.5,0.5c1.3,0,2.4-1.1,2.4-2.4s-1.1-2.4-2.4-2.4c-1.3,0-2.4,1.1-2.4,2.4c0,0.4,0.1,0.8,0.3,1.2l-5.6,4.7
		c-1.1-1.1-2.6-1.8-4.3-1.8c-3.4,0-6.1,2.7-6.1,6.1c0,3.4,2.7,6.1,6.1,6.1c0.5,0,1-0.1,1.4-0.2l10.3,27.3c-1.9,1-3.3,3.1-3.3,5.4
		c0,0.3,0,0.6,0.1,0.9l-17.3,4.1c-0.4-0.8-1.2-1.4-2.2-1.4c-1.3,0-2.4,1.1-2.4,2.4s1.1,2.4,2.4,2.4c1.3,0,2.4-1.1,2.4-2.4
		c0,0,0,0,0-0.1l17.3-4.1c0.8,2.4,3.1,4.2,5.8,4.2c3.4,0,6.1-2.7,6.1-6.1l0,0l38.8-5.1c0.7,2.6,3.1,4.6,5.9,4.6c2.7,0,5-1.8,5.8-4.2
		l38.1,7.1c0,0.1,0,0.2,0,0.4c0,3.4,2.7,6.1,6.1,6.1s6.1-2.7,6.1-6.1c0-0.9-0.2-1.8-0.6-2.6l20.4-13.1c1.2,1.6,3,2.8,5,3.4
		l-6.5,42.3c-0.1,0-0.3,0-0.4,0c-5.2,0-9.3,4.2-9.3,9.3c0,1,0.2,2,0.5,2.9l-13.2,5.5c-1-1.8-3-3.1-5.3-3.1c-3.4,0-6.1,2.7-6.1,6.1
		c0,2.6,1.6,4.8,3.9,5.7l-6,23.3c-0.3,0-0.5-0.1-0.8-0.1c-3.4,0-6.1,2.7-6.1,6.1c0,3.4,2.7,6.1,6.1,6.1s6.1-2.7,6.1-6.1
		c0-2.6-1.6-4.8-3.9-5.7l6-23.3c0.3,0,0.5,0.1,0.8,0.1c3.4,0,6.1-2.7,6.1-6.1c0-0.6-0.1-1.1-0.2-1.6l13.2-5.5c1.5,3,4.7,5.1,8.3,5.1
		c2.5,0,4.8-1,6.5-2.7l19.7,16.2c-1,1.5-1.5,3.2-1.5,5.1c0,2.5,1,4.7,2.5,6.3l-30.8,33.6c-1.6-1.2-3.6-2-5.7-2
		c-5.2,0-9.3,4.2-9.3,9.3c0,4.5,3.1,8.2,7.3,9.1l-3.3,29.6l0,0c-5.2,0-9.3,4.2-9.3,9.3c0,2.3,0.8,4.4,2.2,6l-16.9,16.7
		c-1-0.8-2.3-1.3-3.8-1.3c-3.4,0-6.1,2.7-6.1,6.1c0,2.6,1.6,4.8,3.9,5.7l-9.9,40.9c-0.5-0.1-1-0.1-1.5-0.1c-3.1,0-5.9,1.6-7.6,3.9
		l-41.7-23.3c0.8-1.8,1.3-3.8,1.3-5.9c0-7.5-5.9-13.6-13.3-14v-41.4c4.8-0.4,8.6-4.4,8.6-9.3c0-1.7-0.5-3.3-1.2-4.6l29-21.1
		c1.7,1.9,4.2,3.1,6.9,3.1c5.2,0,9.3-4.2,9.3-9.3c0-4.4-3.1-8.2-7.3-9.1l7.2-61.6h0.1c5.2,0,9.3-4.2,9.3-9.3c0-5.2-4.2-9.3-9.3-9.3
		c-5.2,0-9.3,4.2-9.3,9.3c0,2,0.6,3.9,1.7,5.4l-21,17.7c-1.1-1-2.5-1.6-4.1-1.6c-0.9,0-1.7,0.2-2.5,0.5l-8.6-15.4
		c0.5-0.4,0.9-1.1,0.9-1.8c0-1.3-1.1-2.4-2.4-2.4s-2.4,1.1-2.4,2.4c0,1.3,1.1,2.4,2.4,2.4c0.3,0,0.5,0,0.7-0.1l8.6,15.4
		c-0.5,0.3-1,0.8-1.4,1.3l-34.2-21.1c0.4-0.8,0.6-1.6,0.6-2.5c0-3.4-2.7-6.1-6.1-6.1c-3.4,0-6.1,2.7-6.1,6.1c0,3.4,2.7,6.1,6.1,6.1
		c1.9,0,3.6-0.9,4.7-2.3L216,155c-0.4,0.8-0.6,1.6-0.6,2.5c0,1.4,0.5,2.7,1.3,3.7l-15.1,13.7c-0.4-0.3-0.9-0.5-1.4-0.5
		c-1.3,0-2.4,1.1-2.4,2.4c0,1.3,1.1,2.4,2.4,2.4c1.3,0,2.4-1.1,2.4-2.4c0-0.4-0.1-0.9-0.3-1.2l15.1-13.7c1.1,1,2.6,1.7,4.2,1.7
		c0.5,0,1-0.1,1.5-0.2l6,15.3c-1.9,1-3.2,3-3.2,5.3c0,1.5,0.5,2.8,1.4,3.9l-11.2,11.7c-1-0.8-2.3-1.2-3.6-1.2
		c-3.4,0-6.1,2.7-6.1,6.1c0,3.4,2.7,6.1,6.1,6.1c2.8,0,5.1-1.8,5.8-4.3l17.2,2.9c0,0.3,0,0.5,0,0.8c0,1.7,0.5,3.3,1.2,4.6l-29,21.1
		c-1.7-1.9-4.2-3.1-6.9-3.1c-3,0-5.7,1.4-7.4,3.6L157.3,214c0.6-1.2,0.9-2.6,0.9-4c0-5.2-4.2-9.3-9.3-9.3c-2.3,0-4.4,0.8-6,2.2
		l-34.2-34.7c1.4-1.6,2.3-3.8,2.3-6.1c0-0.7-0.1-1.3-0.2-1.9l23.3-6.8c0.9,2.2,3.1,3.7,5.6,3.7c3.4,0,6.1-2.7,6.1-6.1
		c0-3.4-2.7-6.1-6.1-6.1c-3.4,0-6.1,2.7-6.1,6.1c0,0.3,0,0.7,0.1,1l-23.3,6.8c-0.7-1.9-2-3.4-3.6-4.5l20.3-40.1
		c1,0.4,2.1,0.6,3.3,0.6c4.3,0,7.9-2.9,9-6.8l16,3.1c0,0.1,0,0.3,0,0.4c0,3.4,2.7,6.1,6.1,6.1c3.4,0,6.1-2.7,6.1-6.1
		s-2.7-6.1-6.1-6.1c-2.7,0-5,1.8-5.8,4.2l-16-3.1c0-0.3,0.1-0.7,0.1-1.1c0-3-1.4-5.6-3.6-7.4l10.4-15.8c0.8,0.4,1.7,0.6,2.7,0.6
		c3.4,0,6.1-2.7,6.1-6.1s-2.7-6.1-6.1-6.1c-3.4,0-6.1,2.7-6.1,6.1c0,1.9,0.8,3.5,2.1,4.6l-10.4,15.8c-1.3-0.7-2.9-1.1-4.5-1.1
		c-0.4,0-0.7,0-1.1,0.1l-8.5-37.3c3.7-1.3,6.3-4.7,6.3-8.8c0-5.2-4.2-9.3-9.3-9.3c-5.2,0-9.3,4.2-9.3,9.3s4.2,9.3,9.3,9.3
		c0.4,0,0.7,0,1.1-0.1l8.5,37.3c-3.7,1.3-6.3,4.7-6.3,8.8c0,3.3,1.7,6.2,4.3,7.8L105,153.3c-1-0.4-2.1-0.6-3.3-0.6
		c-3.1,0-5.8,1.5-7.5,3.8l-25.3-14.7c0.5-1.2,0.8-2.4,0.8-3.8c0-5.2-4.2-9.3-9.3-9.3c-0.8,0-1.6,0.1-2.4,0.3l-8.6-24.3
		c2-1,3.4-3.1,3.4-5.5c0-1.3-0.4-2.5-1.1-3.4l14.5-7.7c1.6,2.7,4.6,4.5,8,4.5c0.7,0,1.3-0.1,2-0.2l6.2,22.7
		c-0.8,0.4-1.3,1.2-1.3,2.2c0,1.3,1.1,2.4,2.4,2.4s2.4-1.1,2.4-2.4s-1.1-2.4-2.4-2.4c-0.1,0-0.1,0-0.1,0l-6.2-22.7
		c3.6-1.2,6.2-4.4,6.4-8.4h20.1c0.2,1.1,1.2,1.9,2.4,1.9c1.3,0,2.4-1.1,2.4-2.4s-1.1-2.4-2.4-2.4c-1.2,0-2.2,0.8-2.4,1.9H83.5
		c-0.2-4.1-3.1-7.5-6.9-8.5l6.5-41c0.2,0,0.3,0,0.5,0c5.2,0,9.3-4.2,9.3-9.3c0-5.2-4.2-9.3-9.3-9.3c-5.2,0-9.3,4.2-9.3,9.3
		c0,4.3,2.9,7.9,6.9,9l-6.5,41c-0.2,0-0.3,0-0.5,0c-5.2,0-9.3,4.2-9.3,9.3c0,1.4,0.3,2.7,0.9,3.9L51,95c-1.1-1.1-2.7-1.9-4.4-1.9
		c-0.7,0-1.3,0.1-1.9,0.3L26.4,55.1c1.7-1.1,2.8-3,2.8-5.1c0-3.4-2.7-6.1-6.1-6.1S17,46.6,17,50c0,3.4,2.7,6.1,6.1,6.1
		c0.7,0,1.3-0.1,1.9-0.3l18.3,38.3c-1.7,1.1-2.8,3-2.8,5.1c0,3.4,2.7,6.1,6.1,6.1c0.4,0,0.9-0.1,1.3-0.1l8.6,24.3
		c-3.3,1.5-5.5,4.7-5.5,8.5c0,0.5,0.1,1.1,0.1,1.6l-33.5,9.6c-1.4-3.4-4.7-5.8-8.6-5.8c-5.2,0-9.3,4.2-9.3,9.3
		c0,5.2,4.2,9.3,9.3,9.3c5.2,0,9.3-4.2,9.3-9.3c0-0.5-0.1-1.1-0.1-1.6l33.5-9.6c1.4,3.4,4.7,5.8,8.6,5.8c3.1,0,5.8-1.5,7.5-3.8
		l25.3,14.7c-0.5,1.2-0.8,2.4-0.8,3.8c0,5.2,4.2,9.3,9.3,9.3c2.3,0,4.4-0.8,6-2.2l34.2,34.7c-1.4,1.6-2.3,3.8-2.3,6.1
		c0,1.9,0.6,3.6,1.5,5.1l-28.3,23c-1.7-1.7-4-2.7-6.6-2.7c-4.2,0-7.7,2.8-8.9,6.6l-29.1-5.7c0-0.3,0-0.5,0-0.8
		c0-5.2-4.2-9.3-9.3-9.3c-2.1,0-4,0.7-5.6,1.9l-31.4-33.8c1.4-1.6,2.3-3.8,2.3-6.1c0-1.6-0.4-3.1-1.1-4.4l12.6-7.6
		c0.4,0.5,1.1,0.8,1.8,0.8c1.3,0,2.4-1.1,2.4-2.4c0-1.3-1.1-2.4-2.4-2.4c-1.3,0-2.4,1.1-2.4,2.4c0,0.3,0.1,0.5,0.1,0.8l-12.6,7.6
		c-1.7-2.5-4.5-4.1-7.7-4.1c-5.2,0-9.3,4.2-9.3,9.3c0,5.2,4.2,9.3,9.3,9.3c2.1,0,4-0.7,5.6-1.9l31.4,33.8c-1.4,1.6-2.3,3.8-2.3,6.1
		c0,1.7,0.5,3.3,1.3,4.7L31,254c-1.1-1.2-2.7-2-4.5-2c-3.4,0-6.1,2.7-6.1,6.1c0,3.4,2.7,6.1,6.1,6.1s6.1-2.7,6.1-6.1
		c0-1-0.3-2-0.7-2.9l19.8-13.9c1.3,1.6,3.2,2.8,5.4,3.2L53.4,288c-5.1,0.1-9.1,4.2-9.1,9.3c0,1.3,0.3,2.5,0.7,3.6l-13.4,6.9
		c-1.1-1.6-2.9-2.6-5-2.6c-3.4,0-6.1,2.7-6.1,6.1s2.7,6.1,6.1,6.1s6.1-2.7,6.1-6.1c0-0.7-0.1-1.5-0.4-2.1l13.4-6.9
		c1.2,2,3.1,3.4,5.4,4l-3.8,19.6c-0.1,0-0.3,0-0.4,0c-3.4,0-6.1,2.7-6.1,6.1s2.7,6.1,6.1,6.1c3.4,0,6.1-2.7,6.1-6.1
		c0-2.7-1.8-5-4.2-5.8l3.8-19.6c0.3,0,0.7,0.1,1,0.1c1.5,0,2.9-0.4,4.2-1l20,31.1c-2.1,1.7-3.5,4.3-3.5,7.3c0,2.8,1.2,5.2,3.1,6.9
		l-25.8,35.6c-1.4-0.8-2.9-1.2-4.6-1.2c-5.2,0-9.3,4.2-9.3,9.3c0,2.5,1,4.8,2.6,6.5L16.9,429c-1.5-1-3.3-1.6-5.2-1.6
		c-5.2,0-9.3,4.2-9.3,9.3c0,5.2,4.2,9.3,9.3,9.3c5.2,0,9.3-4.2,9.3-9.3c0-2.5-1-4.8-2.6-6.5l23.4-27.8c1.5,1,3.3,1.6,5.2,1.6
		c5.2,0,9.3-4.2,9.3-9.3c0-2.8-1.2-5.2-3.1-6.9L79,352.2c1.4,0.8,2.9,1.2,4.6,1.2c4.5,0,8.2-3.1,9.1-7.3l41.6,4.6l0,0
		c0,5.2,4.2,9.3,9.3,9.3c1.3,0,2.6-0.3,3.7-0.8l28.2,49.9c-2.4,1.7-3.9,4.5-3.9,7.6c0,2.3,0.8,4.4,2.2,6.1l-30.7,32.5
		c-1.6-1.2-3.5-1.9-5.6-1.9c-4.2,0-7.7,2.7-8.9,6.5L103,454c0-0.2,0-0.4,0-0.6c0-2.7-1.7-4.9-4.1-5.7l4-15.2h0.1
		c1.3,0,2.4-1.1,2.4-2.4s-1.1-2.4-2.4-2.4s-2.4,1.1-2.4,2.4c0,1,0.6,1.8,1.4,2.2l-4,15.2c-0.3-0.1-0.7-0.1-1-0.1
		c-3.4,0-6.1,2.7-6.1,6.1c0,0.2,0,0.4,0,0.6L62,460.7c-0.9-2.3-3.1-4-5.7-4c-0.4,0-0.9,0-1.3,0.1l-4.5-14.9c0.8-0.4,1.3-1.2,1.3-2.1
		c0-1.3-1.1-2.4-2.4-2.4c-1.3,0-2.4,1.1-2.4,2.4s1.1,2.4,2.4,2.4c0.1,0,0.1,0,0.2,0L54,457c-2.3,0.9-3.8,3.1-3.8,5.7
		c0,3.4,2.7,6.1,6.1,6.1c3.4,0,6.1-2.7,6.1-6.1c0-0.2,0-0.4,0-0.6l28.9-6.6c0.9,2.3,3.1,4,5.7,4c1.2,0,2.4-0.4,3.4-1l6.9,8.8
		c-0.4,0.4-0.6,1-0.6,1.6c0,1.3,1.1,2.4,2.4,2.4s2.4-1.1,2.4-2.4s-1.1-2.4-2.4-2.4c-0.4,0-0.8,0.1-1.1,0.3l-6.9-8.8
		c0.7-0.6,1.2-1.5,1.6-2.4l25.6,5.9c-0.1,0.4-0.1,0.9-0.1,1.4c0,5.2,4.2,9.3,9.3,9.3c5.2,0,9.3-4.2,9.3-9.3c0-2.3-0.8-4.4-2.2-6.1
		l30.7-32.5c1.6,1.2,3.5,1.9,5.6,1.9c1.2,0,2.4-0.2,3.5-0.7l8.3,17.8c-0.6,0.4-1,1.1-1,1.9c0,1.3,1.1,2.4,2.4,2.4
		c1.3,0,2.4-1.1,2.4-2.4s-1.1-2.4-2.4-2.4c-0.2,0-0.4,0-0.5,0.1l-8.3-17.8c1.5-0.8,2.8-2,3.7-3.5l32.2,14.5
		c-0.3,0.9-0.5,1.9-0.5,2.9c0,5.2,4.2,9.3,9.3,9.3c0.1,0,0.2,0,0.2,0l2.1,26.2c-1,0.3-1.8,1.2-1.8,2.3c0,1.3,1.1,2.4,2.4,2.4
		c1.3,0,2.4-1.1,2.4-2.4c0-1.2-0.9-2.3-2.1-2.4l-2.1-26.2c4.6-0.6,8.1-4.5,8.1-9.2c0-5.2-4.2-9.3-9.3-9.3c-3.4,0-6.4,1.9-8,4.6
		l-32.2-14.5c0.3-0.9,0.5-1.9,0.5-2.9c0-5.2-4.2-9.3-9.3-9.3c-1.3,0-2.6,0.3-3.7,0.8L149,358.2c2.4-1.7,3.9-4.5,3.9-7.6
		c0-1.8-0.5-3.4-1.4-4.9l38.9-29.9c2.6,2.9,6.3,4.7,10.5,4.7c4.9,0,9.2-2.5,11.7-6.3l41.7,23.3c-0.5,1.1-0.7,2.4-0.7,3.7
		c0,2.4,0.9,4.6,2.4,6.3l-17.8,19c-1-0.7-2.2-1.2-3.6-1.2c-3.4,0-6.1,2.7-6.1,6.1s2.7,6.1,6.1,6.1c3.4,0,6.1-2.7,6.1-6.1
		c0-1.5-0.5-2.8-1.4-3.9l17.8-19c1.6,1.3,3.6,2,5.8,2c3.3,0,6.1-1.7,7.8-4.2l21.9,12.8c-0.1,0.2-0.1,0.5-0.1,0.8
		c0,1.3,1.1,2.4,2.4,2.4s2.4-1.1,2.4-2.4s-1.1-2.4-2.4-2.4c-0.7,0-1.4,0.3-1.8,0.8l-21.9-12.8c0.7-1.3,1-2.7,1-4.3
		c0-4.1-2.7-7.6-6.4-8.9l9.9-40.9c0.2,0,0.5,0,0.7,0c3.4,0,6.1-2.7,6.1-6.1c0-1.4-0.5-2.7-1.3-3.7l16.9-16.7
		c1.6,1.4,3.8,2.3,6.1,2.3c3.9,0,7.3-2.4,8.7-5.9L341,269c-0.1,0.5-0.1,1-0.1,1.5c0,5.2,4.2,9.3,9.3,9.3s9.3-4.2,9.3-9.3
		c0-2.8-1.2-5.2-3.1-6.9l17.6-23.1c0.9,0.5,1.9,0.8,3.1,0.8c0.9,0,1.8-0.2,2.6-0.6l8.8,15.3c-0.5,0.4-0.8,1.1-0.8,1.8
		c0,1.3,1.1,2.4,2.4,2.4s2.4-1.1,2.4-2.4s-1.1-2.4-2.4-2.4c-0.3,0-0.5,0.1-0.8,0.1l-8.8-15.3c0.8-0.6,1.5-1.3,1.9-2.2l38.7,14.4
		c-0.1,0.5-0.2,0.9-0.2,1.4c0,2.5,1.5,4.6,3.6,5.6l-9.5,31.8c-0.3-0.1-0.7-0.1-1-0.1c-3.4,0-6.1,2.7-6.1,6.1c0,0.4,0,0.7,0.1,1
		l-34.4,10.5c-1-2.1-3.1-3.6-5.6-3.6c-3.4,0-6.1,2.7-6.1,6.1s2.7,6.1,6.1,6.1s6.1-2.7,6.1-6.1c0-0.4,0-0.7-0.1-1l34.4-10.5
		c0.9,2.1,3.1,3.6,5.6,3.6c1,0,2-0.3,2.9-0.7l17.5,24.8c-1.2,1.1-2,2.7-2,4.5c0,1.9,0.8,3.5,2.2,4.7l-18.2,25.5
		c-2.2-1.3-5.1-1.1-7.2,0.7c-2.5,2.2-2.7,6.1-0.5,8.6s6.1,2.7,8.6,0.5c0.7-0.6,1.3-1.4,1.6-2.3l36.5,11.2c-0.4,1.8,0.1,3.9,1.4,5.4
		c2.2,2.5,6.1,2.7,8.6,0.5c2.1-1.9,2.6-5,1.3-7.4l10.1-6.4c0.1,0.2,0.3,0.4,0.5,0.6c2,2.2,4.9,3,7.6,2.3l5.4,17.1
		c-0.1,0.1-0.2,0.1-0.3,0.2c-0.8,0.7-0.9,2-0.2,2.9c0.7,0.8,2,0.9,2.9,0.2c0.8-0.7,0.9-2,0.2-2.9c-0.4-0.5-1-0.7-1.6-0.7l-5.4-17.1
		c0.8-0.3,1.7-0.8,2.4-1.4c1.5-1.4,2.4-3.2,2.5-5l28.6,0.8c0.1,0.3,0.2,0.6,0.5,0.9c0.7,0.8,2,0.9,2.9,0.2
		C523.6,370.2,523.7,368.9,522.9,368.1z M218.6,204.8c0-0.1,0-0.2,0-0.3c0-1.5-0.5-2.8-1.4-3.9l11.2-11.7c1,0.8,2.3,1.2,3.6,1.2
		c3.4,0,6.1-2.7,6.1-6.1c0-3.4-2.7-6.1-6.1-6.1c-0.5,0-1,0.1-1.5,0.2l-6-15.3c1.9-1,3.2-3,3.2-5.3c0-1.2-0.4-2.4-1-3.3l20.9-17.6
		c1.2,1.2,2.8,2.1,4.6,2.5l-7.2,61.6h-0.1c-4.4,0-8,3-9,7L218.6,204.8z M150.3,344.2c-1.7-1.8-4.1-2.9-6.7-2.9
		c-4.5,0-8.2,3.1-9.1,7.3L92.9,344l0,0c0-5.2-4.2-9.3-9.3-9.3c-1.5,0-2.9,0.4-4.2,1l-20-31.1c2.1-1.7,3.5-4.3,3.5-7.3
		c0-4.5-3.2-8.3-7.5-9.2l3.7-43.5c4.1-0.1,7.5-2.8,8.7-6.5l29.1,5.7c0,0.3,0,0.5,0,0.8c0,5.2,4.2,9.3,9.3,9.3c2.1,0,4.1-0.7,5.7-1.9
		l17.7,19.5c-0.9,1.1-1.5,2.5-1.5,4c0,3.4,2.7,6.1,6.1,6.1c3.4,0,6.1-2.7,6.1-6.1s-2.7-6.1-6.1-6.1c-1.3,0-2.5,0.4-3.5,1.1L113,251
		c1.6-1.7,2.5-3.9,2.5-6.4c0-1.9-0.6-3.6-1.5-5.1l28.3-23c1.7,1.7,4,2.7,6.6,2.7c3,0,5.7-1.4,7.4-3.6l36.2,22.3
		c-0.6,1.2-0.9,2.6-0.9,4c0,4.9,3.8,8.9,8.6,9.3v41.4c-7.4,0.4-13.2,6.5-13.2,14c0,2.8,0.9,5.5,2.3,7.7L150.3,344.2z"/>
</g>
</svg>
