<?xml version="1.0" standalone="no"?>
<!DOCTYPE svg PUBLIC "-//W3C//DTD SVG 20010904//EN"
 "http://www.w3.org/TR/2001/REC-SVG-20010904/DTD/svg10.dtd">
<svg version="1.0" xmlns="http://www.w3.org/2000/svg"
 width="10900.000000pt" height="4280.000000pt" viewBox="0 0 10900.000000 4280.000000"
 preserveAspectRatio="xMidYMid meet">

<g transform="translate(0.000000,4280.000000) scale(0.100000,-0.100000)"
fill="#2A55A3" stroke="none">
<path d="M20700 42780 c-287 -10 -717 -35 -985 -56 -4609 -362 -8933 -2188
-12420 -5244 -361 -317 -582 -525 -1016 -959 -644 -644 -1046 -1092 -1578
-1756 -1134 -1416 -2065 -2934 -2808 -4580 -1430 -3168 -2061 -6660 -1838
-10165 265 -4145 1720 -8096 4205 -11415 617 -825 1201 -1502 1925 -2234 436
-440 719 -708 1146 -1082 931 -817 2014 -1605 3090 -2249 3648 -2186 7849
-3225 12124 -3000 4071 215 7975 1581 11289 3953 1794 1284 3382 2839 4701
4602 1006 1344 1836 2775 2501 4308 l103 237 -1010 0 -1010 0 -43 -92 c-79
-170 -346 -699 -453 -897 -1253 -2324 -2959 -4369 -5026 -6024 -1845 -1477
-3982 -2625 -6217 -3340 -2186 -699 -4429 -1004 -6750 -916 -4399 165 -8612
1821 -11960 4700 -631 542 -1307 1206 -1855 1819 -2325 2605 -3911 5783 -4585
9190 -186 941 -293 1809 -352 2855 -18 310 -18 1630 0 1930 31 531 62 904 113
1335 433 3706 1919 7195 4298 10095 704 857 1531 1704 2381 2434 2140 1841
4647 3193 7350 3965 1346 384 2716 621 4120 710 804 52 1711 52 2520 1 5700
-362 10951 -3206 14389 -7795 739 -987 1327 -1943 1883 -3065 l191 -385 1008
0 1007 0 -102 238 c-301 694 -669 1430 -1044 2087 -1459 2555 -3431 4787
-5787 6550 -2285 1709 -4853 2931 -7611 3619 -1387 346 -2727 541 -4249 616
-283 14 -1341 20 -1645 10z"/>
<path d="M21367 40569 c-930 -82 -1767 -583 -2289 -1369 -107 -161 -259 -464
-323 -645 -218 -608 -238 -1278 -58 -1900 103 -356 291 -721 533 -1035 113
-147 402 -429 560 -547 685 -512 1526 -718 2356 -578 962 162 1786 768 2223
1635 162 320 258 626 308 980 25 178 25 645 0 815 -52 350 -136 627 -282 930
-157 326 -355 597 -631 865 -507 492 -1152 786 -1864 850 -130 11 -401 11
-533 -1z m503 -529 c638 -58 1220 -322 1675 -762 453 -438 728 -977 822 -1613
19 -131 26 -603 9 -660 -7 -26 -11 -15 -27 80 -68 398 -214 763 -437 1090
-104 154 -168 231 -307 374 -463 476 -1057 760 -1718 822 -157 14 -490 7 -635
-15 -601 -91 -1130 -355 -1553 -776 -400 -399 -674 -926 -768 -1481 -11 -61
-21 -113 -24 -115 -11 -12 -19 223 -14 410 6 220 22 343 69 541 262 1103 1188
1941 2308 2089 199 27 415 32 600 16z"/>
<path d="M17840 36214 c-1400 -337 -2730 -864 -3986 -1581 l-202 -115 25 -57
c127 -285 229 -667 280 -1041 23 -168 26 -703 5 -870 -94 -760 -360 -1396
-828 -1985 -109 -136 -404 -433 -544 -547 -588 -478 -1268 -762 -2022 -844
-205 -23 -581 -23 -786 0 -392 43 -782 145 -1122 293 -69 30 -130 56 -135 59
-11 5 -278 -433 -433 -711 -532 -953 -960 -1964 -1278 -3015 -64 -213 -164
-574 -164 -594 0 -6 28 -22 63 -35 112 -43 379 -176 517 -258 905 -540 1549
-1429 1774 -2449 64 -290 87 -510 87 -819 1 -452 -59 -822 -199 -1235 -358
-1057 -1181 -1917 -2227 -2325 -66 -26 -121 -48 -122 -49 -5 -4 100 -430 157
-636 343 -1256 815 -2398 1462 -3536 l120 -212 102 43 c300 125 676 221 1046
267 164 20 681 17 855 -5 302 -39 618 -116 895 -218 180 -67 524 -238 689
-344 841 -537 1433 -1357 1666 -2306 203 -828 127 -1695 -215 -2463 -27 -60
-48 -111 -47 -112 13 -11 335 -205 482 -291 1141 -664 2350 -1170 3640 -1523
100 -28 188 -50 197 -50 9 0 25 27 43 73 81 207 220 466 369 687 570 846 1455
1429 2456 1619 252 47 360 56 705 56 345 0 452 -9 705 -56 1282 -242 2364
-1139 2841 -2354 28 -71 53 -131 54 -133 6 -6 610 147 835 212 1190 343 2266
797 3357 1418 l191 109 -49 122 c-127 315 -210 635 -256 992 -22 175 -25 672
-5 835 36 295 94 564 172 798 289 874 871 1598 1680 2090 l35 22 -2318 0
-2318 0 -167 -90 c-1137 -616 -2353 -984 -3647 -1105 -543 -50 -1198 -50
-1750 0 -1749 161 -3415 803 -4820 1859 -611 459 -1210 1037 -1692 1633 -1139
1408 -1849 3110 -2047 4903 -46 413 -51 521 -51 1060 0 539 5 647 51 1060 197
1791 909 3496 2047 4903 408 505 923 1020 1424 1424 1468 1184 3221 1896 5088
2068 553 50 1200 50 1755 0 1274 -117 2510 -492 3642 -1105 l168 -90 2239 2
2239 3 -105 90 c-209 179 -459 457 -625 695 -295 424 -506 919 -607 1425 -154
769 -70 1566 240 2274 33 74 58 135 56 137 -10 10 -289 179 -452 274 -1089
636 -2261 1138 -3455 1480 -264 75 -394 110 -411 110 -8 0 -25 -28 -38 -62
-13 -35 -54 -127 -91 -204 -540 -1133 -1592 -1925 -2825 -2128 -212 -35 -304
-41 -630 -41 -344 1 -428 7 -690 56 -1174 218 -2196 997 -2720 2074 -60 123
-139 309 -168 398 -4 9 -10 17 -14 16 -4 0 -91 -20 -193 -45z"/>
<path d="M9990 36024 c-248 -21 -455 -56 -657 -113 -829 -235 -1523 -814
-1903 -1586 -232 -471 -329 -913 -317 -1435 6 -253 27 -419 82 -645 172 -717
597 -1346 1200 -1777 654 -468 1476 -658 2279 -527 1054 172 1950 893 2346
1889 148 375 214 723 213 1140 0 232 -13 377 -53 584 -138 713 -549 1382
-1125 1828 -442 343 -942 549 -1510 623 -115 15 -461 27 -555 19z m720 -489
c601 -93 1108 -342 1525 -747 125 -121 285 -300 239 -268 -398 281 -729 431
-1124 510 -219 44 -325 54 -555 54 -445 0 -813 -85 -1210 -279 -820 -400
-1375 -1168 -1512 -2090 -22 -151 -25 -571 -5 -715 67 -471 235 -900 493
-1257 32 -45 59 -84 59 -88 0 -13 -183 150 -272 244 -410 427 -659 941 -750
1546 -18 122 -18 608 0 730 139 926 682 1685 1502 2096 309 155 615 241 1005
283 93 10 504 -3 605 -19z"/>
<path d="M32635 35675 c-734 -86 -1362 -394 -1871 -916 -997 -1025 -1147
-2617 -359 -3814 400 -608 1007 -1057 1702 -1259 631 -183 1312 -158 1931 70
122 45 375 167 490 235 621 371 1092 946 1326 1619 91 261 144 512 165 779 70
875 -243 1742 -853 2370 -514 527 -1144 833 -1886 917 -153 17 -494 16 -645
-1z m335 -456 c386 -24 708 -109 1055 -279 476 -232 875 -601 1151 -1062 183
-307 304 -653 362 -1031 24 -161 24 -597 -1 -757 -94 -602 -342 -1106 -749
-1525 -126 -130 -300 -284 -265 -235 318 452 477 840 544 1320 21 154 24 517
5 670 -77 619 -352 1190 -782 1621 -429 430 -953 692 -1573 787 -161 24 -597
24 -757 -1 -457 -72 -862 -233 -1208 -482 -52 -37 -95 -65 -97 -63 -6 6 189
221 270 296 472 441 1079 703 1712 741 71 5 137 9 148 9 11 1 94 -3 185 -9z"/>
<path d="M24847 29149 c-1645 -72 -3026 -747 -3743 -1829 -335 -507 -636
-1274 -873 -2225 -257 -1032 -285 -1727 -95 -2393 66 -235 171 -462 287 -624
216 -300 651 -711 1636 -1543 363 -307 582 -505 816 -739 446 -446 498 -545
499 -956 0 -107 -5 -244 -12 -305 -33 -280 -125 -737 -203 -1003 -151 -515
-357 -829 -634 -967 -120 -59 -202 -78 -345 -78 -225 0 -370 69 -429 204 -59
132 -44 389 45 804 21 98 482 1958 500 2018 5 16 -79 17 -1675 17 l-1680 0
-10 -37 c-39 -149 -259 -1039 -300 -1213 -230 -994 -313 -1838 -227 -2326 86
-488 349 -897 791 -1229 510 -384 1137 -600 1970 -677 216 -20 913 -17 1135 5
766 77 1385 248 2045 566 223 108 392 204 590 336 674 448 1029 910 1378 1791
143 359 272 769 392 1239 232 910 337 1642 322 2235 -10 346 -42 563 -122 805
-217 664 -957 1447 -2371 2511 -399 300 -603 485 -743 673 -110 149 -153 261
-173 455 -33 319 88 958 258 1364 181 433 461 671 790 672 192 0 314 -60 374
-185 48 -101 37 -335 -31 -670 -24 -116 -310 -1286 -335 -1367 -5 -17 79 -18
1675 -18 l1680 0 10 38 c6 20 51 201 101 401 259 1042 354 1621 353 2161 0
296 -15 418 -73 592 -145 433 -491 788 -1040 1067 -638 325 -1521 474 -2533
430z"/>
<path d="M28767 21608 c-999 -3989 -1817 -7256 -1817 -7260 0 -5 814 -8 1809
-8 1715 0 1810 1 1815 18 3 9 332 1322 731 2917 399 1595 728 2905 730 2912 3
8 191 12 722 16 734 5 825 9 1153 52 989 129 1773 516 2242 1105 300 377 548
931 783 1750 87 303 490 1908 569 2265 224 1014 272 1524 185 1974 -68 349
-238 661 -467 857 -376 321 -900 506 -1677 594 -481 54 -456 53 -2790 57
l-2170 4 -1818 -7253z m5063 4772 c303 -23 482 -76 587 -173 88 -81 118 -178
118 -382 -1 -240 -18 -325 -242 -1220 -188 -753 -250 -976 -326 -1172 -161
-411 -313 -589 -589 -688 -152 -54 -262 -69 -501 -68 -114 0 -210 2 -212 5 -2
2 205 836 460 1853 256 1018 465 1851 465 1853 0 5 112 1 240 -8z"/>
<path d="M39145 28848 c-2 -7 -166 -658 -363 -1445 l-360 -1433 1225 0 c1191
0 1225 -1 1220 -19 -2 -10 -1165 -2151 -2583 -4757 l-2579 -4739 -265 -1057
-265 -1058 3336 0 3336 0 361 1444 c199 794 362 1447 362 1450 0 3 -603 6
-1340 6 -737 0 -1340 2 -1340 3 0 2 1089 1954 2421 4338 1332 2384 2427 4346
2435 4361 13 24 734 2880 734 2906 0 18 -6329 17 -6335 0z"/>
<path d="M52130 21613 c-887 -3986 -1615 -7254 -1618 -7260 -3 -10 462 -13
2304 -13 2617 0 2981 6 3644 61 873 72 1307 190 1730 472 533 355 900 906
1204 1807 140 416 203 667 445 1755 191 860 209 948 241 1146 117 727 85 1293
-94 1664 -67 139 -145 244 -274 367 -240 230 -635 427 -1094 548 -49 13 -88
26 -88 29 0 3 37 15 83 25 45 10 159 40 252 66 840 239 1300 534 1598 1025
229 378 412 915 562 1654 192 946 229 1662 114 2196 -83 389 -324 804 -614
1057 -436 383 -1007 542 -2255 629 -114 8 -833 13 -2345 16 l-2181 4 -1614
-7248z m4926 4767 c208 -13 359 -33 449 -61 119 -37 209 -146 254 -309 68
-244 16 -639 -195 -1484 -127 -509 -240 -853 -340 -1030 -38 -68 -132 -165
-198 -205 -158 -95 -275 -119 -641 -131 -153 -5 -281 -8 -283 -6 -3 3 702
3188 713 3224 5 15 16 15 241 2z m-1181 -5501 c263 -23 483 -77 582 -144 104
-70 129 -155 120 -418 -9 -279 -26 -371 -263 -1437 -202 -905 -236 -1047 -311
-1263 -164 -479 -300 -626 -667 -722 -126 -32 -346 -64 -514 -73 l-133 -7 6
34 c10 55 895 4025 899 4038 5 12 59 11 281 -8z"/>
<path d="M98275 26319 c-723 -57 -1351 -270 -1923 -651 -563 -376 -980 -812
-1211 -1268 -224 -441 -477 -1264 -730 -2375 -211 -927 -896 -4028 -951 -4305
-212 -1065 -241 -1498 -134 -1977 114 -513 357 -897 756 -1196 315 -237 623
-366 1033 -434 154 -25 590 -26 750 0 423 66 766 212 1115 475 129 97 430 392
525 514 53 69 61 75 66 55 4 -12 24 -201 45 -419 l38 -398 922 0 922 0 7 33
c10 46 1384 6217 1390 6245 l5 22 -1710 0 c-940 0 -1710 -3 -1710 -6 0 -3 -88
-399 -195 -880 -107 -482 -195 -880 -195 -885 0 -5 113 -9 280 -9 247 0 280
-2 280 -16 0 -26 -328 -1487 -382 -1699 -74 -292 -156 -537 -235 -695 -59
-119 -76 -144 -142 -210 -118 -117 -224 -161 -391 -162 -104 0 -153 12 -216
55 -61 41 -101 114 -116 216 -18 124 16 426 88 781 44 217 1332 5996 1380
6190 86 353 170 616 242 753 93 179 240 270 437 271 270 0 363 -120 335 -433
-24 -270 -79 -557 -281 -1466 -77 -346 -143 -642 -146 -657 l-5 -28 1465 0
c1387 0 1466 1 1471 18 3 9 41 181 85 382 198 904 272 1429 273 1940 0 338
-24 519 -99 733 -88 253 -225 467 -443 691 -472 484 -1061 730 -1909 796 -157
12 -626 11 -786 -1z"/>
<path d="M105830 26320 c-784 -66 -1440 -275 -1978 -630 -405 -266 -695 -569
-922 -964 -309 -536 -611 -1558 -707 -2391 -24 -212 -24 -627 0 -785 56 -361
158 -661 297 -875 165 -252 546 -611 1360 -1280 342 -281 555 -470 761 -675
348 -346 391 -433 391 -795 0 -246 -37 -524 -116 -879 -120 -532 -313 -839
-592 -937 -126 -45 -317 -41 -426 8 -177 79 -206 253 -123 728 14 77 101 484
195 905 93 420 170 770 170 777 0 11 -260 13 -1357 11 l-1357 -3 -73 -325
c-210 -941 -262 -1237 -303 -1725 -15 -171 -15 -543 0 -675 55 -498 291 -880
740 -1194 503 -353 1158 -526 1993 -526 780 0 1445 146 2094 460 602 291 1007
631 1272 1070 229 380 438 966 600 1685 138 608 199 1049 208 1502 14 669 -81
1018 -391 1434 -314 420 -829 893 -1581 1451 -490 364 -655 510 -772 685 -102
153 -129 270 -120 533 6 172 34 367 82 570 136 572 384 865 730 864 105 -1
153 -12 217 -53 95 -60 127 -170 109 -377 -16 -179 -41 -312 -164 -869 l-113
-510 1354 -3 c746 -1 1357 0 1360 3 16 16 181 797 232 1100 70 415 84 561 84
905 1 280 -1 313 -22 408 -56 256 -151 430 -341 625 -387 398 -982 643 -1781
733 -169 19 -840 28 -1010 14z"/>
<path d="M62715 26078 c-3 -13 -100 -448 -216 -968 -115 -520 -442 -1987 -725
-3260 -284 -1273 -774 -3476 -1090 -4895 -316 -1419 -577 -2588 -580 -2597 -5
-17 120 -18 2539 -18 l2545 0 5 23 c3 12 119 531 257 1152 138 622 253 1138
256 1148 5 16 -51 17 -1070 17 -708 0 -1076 3 -1076 10 0 16 571 2573 576
2582 3 4 414 8 914 8 857 0 909 1 914 18 10 34 486 2181 486 2191 0 8 -265 11
-910 11 -500 0 -910 1 -910 3 0 3 484 2176 495 2225 l5 22 978 0 977 0 258
1163 c142 639 257 1168 257 1175 0 9 -495 12 -2440 12 l-2440 0 -5 -22z"/>
<path d="M69336 25733 c-71 -203 -176 -503 -233 -668 -96 -274 -192 -550 -505
-1445 -60 -173 -158 -454 -218 -625 -60 -170 -158 -453 -219 -627 -61 -175
-160 -460 -221 -633 -143 -408 -293 -839 -473 -1355 -80 -228 -181 -518 -225
-645 -776 -2220 -1882 -5389 -1882 -5392 0 -1 682 -3 1515 -3 l1515 0 5 23 c4
12 145 486 313 1052 l308 1030 532 3 533 2 -6 -32 c-5 -31 -305 -2070 -305
-2075 0 -2 672 -3 1494 -3 l1495 0 5 43 c6 39 936 11679 936 11705 0 9 -488
12 -2118 12 l-2118 0 -128 -367z m1689 -2940 c-222 -1579 -477 -3510 -547
-4150 l-12 -113 -498 0 c-367 0 -498 3 -498 11 0 7 39 138 86 293 267 872 725
2247 1299 3896 114 327 219 628 232 668 14 40 27 71 29 69 2 -2 -39 -305 -91
-674z"/>
<path d="M75887 26084 c-4 -10 -97 -426 -207 -924 -111 -498 -297 -1337 -415
-1865 -312 -1401 -706 -3171 -1385 -6220 -330 -1485 -603 -2708 -606 -2717 -5
-17 69 -18 1463 -18 l1468 0 590 2653 590 2652 120 -3 c330 -7 536 -92 584
-239 35 -108 23 -347 -34 -688 -38 -229 -34 -208 -564 -2588 l-398 -1787 1360
2 1361 3 392 1765 c633 2845 660 3002 573 3343 -34 135 -138 369 -210 474
-137 199 -447 380 -881 515 -60 18 -108 36 -108 39 0 3 33 9 73 12 102 9 292
42 432 76 318 78 581 202 784 372 340 284 624 941 851 1967 198 897 221 1580
69 2037 -85 255 -255 515 -439 672 -303 260 -621 356 -1380 417 -559 46 -985
56 -2611 63 -1434 6 -1467 6 -1472 -13z m2743 -2004 c188 -24 312 -71 389
-148 74 -74 96 -152 95 -337 -1 -169 -10 -222 -120 -720 -130 -586 -190 -799
-273 -979 -83 -180 -152 -259 -275 -316 -134 -62 -285 -93 -530 -106 -109 -6
-128 -5 -124 7 3 8 135 598 294 1312 l289 1297 90 0 c49 0 124 -5 165 -10z"/>
<path d="M83565 26078 c-3 -13 -77 -347 -166 -743 -188 -846 -1023 -4598
-1579 -7095 -215 -965 -497 -2230 -626 -2810 -129 -580 -237 -1063 -240 -1072
-5 -17 69 -18 1463 -18 l1468 0 1304 5858 c717 3221 1306 5867 1309 5880 l4
22 -1466 0 -1466 0 -5 -22z"/>
<path d="M87675 26078 c-3 -13 -215 -963 -471 -2113 -255 -1149 -669 -3008
-919 -4130 -250 -1122 -625 -2809 -835 -3750 -209 -940 -383 -1718 -386 -1727
-5 -17 58 -18 1220 -18 l1226 0 5 23 c3 12 269 1206 590 2652 322 1447 589
2639 593 2650 6 12 11 -21 15 -95 11 -198 316 -5071 323 -5153 l7 -77 1280 2
1281 3 1308 5870 c719 3229 1307 5873 1308 5878 0 4 -550 7 -1223 7 l-1223 0
-201 -902 c-111 -497 -376 -1688 -590 -2647 -325 -1461 -389 -1738 -395 -1705
-7 33 -458 5205 -458 5242 0 9 -252 12 -1225 12 l-1225 0 -5 -22z"/>
<path d="M5050 24694 c-19 -2 -78 -9 -130 -15 -546 -61 -1102 -294 -1550 -649
-133 -105 -372 -344 -479 -479 -132 -167 -256 -363 -351 -556 -206 -418 -302
-803 -317 -1270 -33 -1042 473 -2032 1342 -2624 1071 -730 2508 -699 3548 78
715 533 1157 1336 1227 2225 54 692 -134 1391 -528 1966 -433 631 -1107 1089
-1848 1255 -232 52 -361 66 -629 70 -137 2 -266 1 -285 -1z m749 -321 c19 -8
7 -12 -65 -22 -270 -40 -561 -137 -831 -276 -767 -395 -1308 -1137 -1447
-1985 -41 -253 -46 -611 -11 -840 140 -909 678 -1657 1485 -2064 248 -125 502
-210 768 -255 63 -10 116 -21 118 -24 19 -19 -441 -24 -596 -7 -378 42 -731
153 -1045 328 -1028 573 -1580 1719 -1384 2872 117 689 501 1317 1063 1739
423 318 876 487 1461 545 71 7 459 -2 484 -11z"/>
<path d="M44520 21165 l0 -865 2570 0 2570 0 0 865 0 865 -2570 0 -2570 0 0
-865z"/>
<path d="M50080 13265 l0 -285 28585 0 28585 0 0 285 0 285 -28585 0 -28585 0
0 -285z"/>
<path d="M9690 13234 c-653 -38 -1271 -272 -1770 -670 -111 -89 -388 -366
-474 -474 -718 -903 -874 -2123 -404 -3175 386 -867 1166 -1506 2108 -1729
240 -57 371 -70 690 -70 251 0 315 3 430 21 601 95 1103 321 1550 699 103 87
296 281 381 384 354 428 585 953 670 1520 20 134 24 192 23 430 0 207 -4 306
-17 400 -97 686 -393 1285 -872 1765 -492 493 -1129 802 -1811 879 -137 16
-397 26 -504 20z m-1469 -849 c-236 -325 -404 -735 -471 -1145 -90 -555 -9
-1125 230 -1627 536 -1124 1754 -1743 2986 -1517 388 71 772 234 1099 469 42
31 79 54 81 53 6 -7 -165 -195 -257 -283 -338 -322 -771 -562 -1219 -675
-1165 -295 -2380 195 -3017 1219 -503 806 -548 1838 -118 2686 120 236 275
458 451 644 95 100 281 271 296 271 4 0 -23 -43 -61 -95z"/>
<path d="M32410 12893 c-1078 -80 -2037 -720 -2518 -1679 -216 -431 -323 -884
-323 -1369 -1 -371 48 -671 165 -1010 110 -321 289 -648 502 -915 116 -145
394 -415 544 -527 311 -232 640 -397 990 -498 581 -167 1181 -163 1758 11 349
106 718 300 1012 534 135 107 382 355 489 490 338 427 545 906 634 1470 18
116 21 177 21 435 0 262 -2 318 -22 445 -85 548 -304 1052 -638 1470 -93 116
-318 344 -437 443 -483 401 -1076 644 -1702 697 -111 9 -370 11 -475 3z m2010
-962 c153 -153 238 -256 345 -416 240 -359 396 -789 446 -1225 15 -135 15
-465 0 -600 -59 -520 -263 -1009 -590 -1420 -102 -128 -303 -329 -431 -430
-476 -377 -1024 -578 -1630 -597 -745 -24 -1450 247 -1987 761 -102 98 -253
265 -253 280 0 3 37 -22 82 -55 168 -124 430 -265 639 -343 713 -265 1492
-226 2174 109 818 401 1369 1156 1511 2070 26 168 27 619 1 780 -56 349 -162
667 -315 940 -57 102 -153 251 -204 316 -15 20 -28 40 -28 44 0 14 110 -83
240 -214z"/>
<path d="M89330 12606 c0 -8 9 -43 20 -78 59 -190 249 -350 469 -394 122 -24
279 -16 386 20 198 68 346 213 399 395 9 30 16 58 16 63 0 4 -69 8 -153 8
l-153 0 -12 -34 c-20 -55 -95 -130 -153 -156 -77 -33 -165 -44 -251 -30 -121
18 -200 75 -248 177 l-20 43 -150 0 c-122 0 -150 -3 -150 -14z"/>
<path d="M54472 11995 c-586 -89 -951 -445 -1058 -1030 -25 -136 -26 -487 -1
-625 49 -280 152 -498 323 -679 194 -207 418 -311 764 -357 175 -23 491 -15
643 15 252 51 434 142 601 301 211 202 317 425 362 764 23 171 14 510 -16 651
-55 256 -145 437 -299 598 -175 183 -380 290 -669 348 -139 28 -505 36 -650
14z m427 -610 c192 -46 324 -185 383 -404 26 -97 36 -380 19 -529 -36 -311
-157 -480 -381 -538 -77 -20 -226 -22 -300 -5 -132 31 -254 120 -318 232 -72
126 -109 347 -98 579 15 325 99 509 281 616 103 60 278 81 414 49z"/>
<path d="M79732 11995 c-519 -79 -884 -384 -1016 -850 -49 -173 -60 -264 -60
-495 0 -300 34 -476 128 -676 140 -295 367 -502 656 -598 211 -70 379 -91 665
-83 223 6 359 29 516 86 322 118 577 384 683 714 58 178 71 280 71 557 0 207
-3 274 -19 355 -100 535 -431 866 -974 976 -139 28 -505 36 -650 14z m427
-610 c192 -46 324 -185 382 -402 27 -100 38 -394 19 -539 -46 -370 -216 -544
-534 -547 -272 -2 -451 135 -525 402 -47 169 -52 455 -12 650 60 288 247 449
521 450 47 1 114 -6 149 -14z"/>
<path d="M93695 11999 c-199 -26 -411 -109 -532 -209 -116 -94 -206 -227 -259
-382 -13 -39 -23 -73 -21 -74 3 -3 688 -84 709 -84 8 0 19 20 26 44 16 63 69
126 132 161 48 26 67 30 155 33 109 4 164 -6 215 -41 58 -38 75 -80 75 -178 0
-75 -4 -92 -30 -144 -59 -115 -146 -155 -348 -160 l-122 -2 -3 -232 -2 -231
127 0 c228 0 334 -31 421 -124 65 -69 86 -131 80 -240 -9 -166 -95 -259 -266
-287 -119 -20 -250 9 -332 73 -38 30 -86 103 -100 153 -7 25 -18 45 -24 45
-71 -3 -748 -59 -752 -63 -3 -3 11 -47 31 -98 136 -352 381 -556 770 -641 118
-25 428 -36 574 -19 471 55 787 290 887 661 22 82 25 300 5 380 -33 134 -114
250 -223 320 -48 31 -123 66 -212 99 -16 6 -9 13 40 41 80 45 173 141 212 218
48 97 66 194 59 326 -3 83 -11 128 -29 176 -85 231 -310 392 -646 461 -76 16
-146 21 -322 24 -124 2 -256 -1 -295 -6z"/>
<path d="M102262 11995 c-586 -89 -952 -446 -1058 -1030 -24 -136 -25 -487 -1
-625 51 -293 162 -517 351 -706 143 -143 275 -219 481 -279 171 -49 260 -59
530 -60 279 0 387 15 563 76 337 119 597 384 706 722 59 181 71 279 71 567 0
238 -3 276 -23 370 -58 263 -147 441 -301 603 -175 183 -380 290 -669 348
-139 28 -505 36 -650 14z m427 -610 c192 -46 324 -185 382 -402 27 -100 38
-394 19 -539 -46 -370 -216 -544 -534 -547 -272 -2 -451 135 -525 402 -47 169
-52 455 -12 650 60 288 247 449 521 450 47 1 114 -6 149 -14z"/>
<path d="M78040 11979 c-261 -15 -439 -55 -543 -121 -107 -69 -170 -170 -287
-462 -141 -354 -181 -414 -294 -435 l-46 -8 0 508 0 509 -405 0 -405 0 0
-1320 0 -1320 405 0 405 0 2 522 3 523 40 -3 c87 -8 151 -64 223 -197 24 -44
124 -251 222 -460 l180 -380 455 -3 c250 -1 455 0 455 2 0 2 -85 177 -189 388
-256 523 -341 667 -461 788 -66 66 -166 134 -232 158 -27 9 -48 19 -48 22 0 3
26 18 58 35 120 62 200 170 281 382 61 156 143 254 249 293 43 16 185 39 250
40 9 0 12 62 12 275 l0 275 -97 -1 c-54 -1 -159 -5 -233 -10z"/>
<path d="M50420 10650 l0 -1320 405 0 405 0 0 995 0 995 450 0 450 0 0 -995 0
-995 410 0 410 0 0 1320 0 1320 -1265 0 -1265 0 0 -1320z"/>
<path d="M56837 11483 c-5 -546 -17 -694 -82 -1018 -35 -177 -117 -475 -139
-510 -12 -18 -24 -20 -145 -19 l-131 0 0 -588 0 -588 325 0 325 0 0 285 0 285
845 0 845 0 0 -285 0 -285 330 0 330 0 -2 588 -3 587 -135 1 c-74 1 -138 2
-142 3 -5 1 -8 458 -8 1016 l0 1015 -1104 0 -1104 0 -5 -487z m1401 -855 l-3
-692 -410 -1 c-225 0 -415 1 -421 3 -6 2 2 56 23 150 76 343 136 778 149 1075
l7 157 329 0 328 0 -2 -692z"/>
<path d="M59670 10650 l0 -1320 1773 0 1772 0 0 1318 0 1317 -408 3 -407 2 0
-995 0 -995 -280 0 -280 0 0 995 0 995 -405 0 -405 0 0 -995 0 -995 -275 0
-275 0 0 995 0 995 -405 0 -405 0 0 -1320z"/>
<path d="M63760 10650 l0 -1320 388 0 387 1 490 725 490 726 3 -726 2 -726
380 0 380 0 0 1320 0 1320 -379 0 -378 0 -494 -730 -494 -729 -3 729 -2 730
-385 0 -385 0 0 -1320z"/>
<path d="M66840 10650 l0 -1320 405 0 405 0 0 995 0 995 450 0 450 0 0 -995 0
-995 405 0 405 0 0 1320 0 1320 -1260 0 -1260 0 0 -1320z"/>
<path d="M69910 10650 l0 -1320 405 0 405 0 0 535 0 535 450 0 450 0 0 -535 0
-535 410 0 410 0 0 1320 0 1320 -410 0 -410 0 0 -460 0 -460 -450 0 -450 0 0
460 0 460 -405 0 -405 0 0 -1320z"/>
<path d="M72990 10650 l0 -1320 384 0 384 0 488 722 489 722 3 -722 2 -722
385 0 385 0 0 1320 0 1320 -382 -1 -383 0 -490 -725 c-269 -399 -493 -728
-497 -730 -5 -3 -8 324 -8 725 l0 731 -380 0 -380 0 0 -1320z"/>
<path d="M81830 10650 l0 -1320 728 0 c668 0 742 2 907 21 355 40 454 76 596
218 71 72 93 102 132 181 54 111 77 211 77 337 -1 321 -177 543 -503 633 l-48
13 88 42 c114 54 178 106 236 191 125 183 140 429 40 633 -28 57 -57 96 -118
156 -117 118 -231 171 -423 200 -79 12 -248 15 -904 15 l-808 0 0 -1320z
m1324 775 c132 -28 196 -105 196 -237 0 -117 -47 -190 -149 -230 -51 -19 -80
-22 -303 -26 l-248 -4 0 256 0 256 218 0 c152 0 238 -5 286 -15z m98 -1010
c77 -19 130 -53 162 -103 89 -135 34 -318 -115 -382 -67 -28 -217 -41 -449
-38 l-195 3 -3 264 c-1 158 1 267 7 270 5 4 126 5 270 4 201 -1 274 -5 323
-18z"/>
<path d="M84700 10649 l0 -1320 818 4 c872 4 867 4 1057 56 160 44 310 132
400 233 60 68 119 192 139 290 31 150 15 368 -38 512 -35 97 -83 172 -156 246
-132 131 -318 211 -595 256 -71 12 -203 18 -455 23 l-355 6 -3 508 -2 507
-405 0 -405 0 0 -1321z m1391 -243 c84 -18 137 -45 176 -90 42 -47 57 -96 50
-173 -7 -86 -44 -147 -116 -190 -82 -49 -136 -57 -426 -57 l-260 -1 -3 250
c-1 137 0 255 3 262 7 19 486 18 576 -1z"/>
<path d="M87340 10650 l0 -1320 405 0 405 0 0 1320 0 1320 -405 0 -405 0 0
-1320z"/>
<path d="M88700 10650 l0 -1320 384 0 385 0 487 720 c268 396 491 720 496 720
4 0 8 -324 8 -720 l0 -720 380 0 380 0 0 1320 0 1320 -382 -2 -382 -3 -488
-720 c-268 -396 -492 -721 -498 -723 -7 -3 -10 222 -10 722 l0 726 -380 0
-380 0 0 -1320z"/>
<path d="M96259 11943 c-116 -304 -979 -2603 -979 -2607 0 -3 186 -6 413 -6
l412 0 66 218 65 217 459 3 c252 1 462 -1 467 -6 4 -4 36 -102 72 -217 l63
-210 427 -3 426 -2 -11 27 c-6 16 -226 602 -489 1303 -263 701 -481 1283 -485
1293 -7 16 -38 17 -451 17 l-444 0 -11 -27z m590 -1131 c78 -254 141 -466 141
-472 0 -12 -566 -14 -573 -2 -2 4 58 212 134 462 154 505 148 484 154 479 2
-3 67 -212 144 -467z"/>
<path d="M98420 10650 l0 -1321 778 3 c742 4 784 5 932 26 256 37 350 70 472
167 106 85 200 236 233 377 19 83 19 274 -1 358 -42 178 -148 311 -316 393
-51 25 -120 53 -152 63 l-60 17 94 45 c214 104 330 293 330 537 0 307 -187
535 -509 623 l-96 26 -852 4 -853 3 0 -1321z m1359 766 c107 -40 156 -113 155
-232 -1 -88 -30 -153 -86 -194 -65 -47 -119 -55 -378 -55 l-235 0 -3 240 c-1
132 0 246 3 253 8 22 483 12 544 -12z m3 -990 c163 -22 258 -117 258 -258 0
-107 -69 -209 -166 -242 -74 -25 -227 -37 -444 -34 l-195 3 -3 264 c-1 154 2
267 7 270 12 8 481 5 543 -3z"/>
<path d="M104627 11478 c-5 -511 -12 -615 -58 -888 -34 -209 -137 -606 -166
-645 -5 -6 -62 -10 -138 -10 l-130 0 -3 -587 -2 -588 325 0 325 0 0 285 0 285
845 0 845 0 0 -285 0 -285 330 0 330 0 -2 588 -3 587 -135 1 c-74 1 -138 2
-142 3 -5 1 -8 458 -8 1016 l0 1015 -1104 0 -1104 0 -5 -492z m1403 -848 c0
-545 -3 -690 -12 -691 -61 -5 -812 -2 -820 3 -7 4 1 62 25 175 87 404 147 868
147 1136 l0 67 330 0 330 0 0 -690z"/>
<path d="M20980 8344 c-934 -67 -1754 -517 -2295 -1259 -508 -696 -698 -1590
-519 -2438 96 -453 311 -909 604 -1277 107 -135 345 -373 480 -480 417 -331
917 -552 1440 -634 339 -54 746 -45 1089 25 674 136 1298 510 1743 1045 670
807 880 1902 556 2904 -272 840 -895 1521 -1708 1869 -376 161 -733 237 -1145
245 -104 2 -215 2 -245 0z m-2525 -2634 c184 -1126 1077 -2037 2200 -2245 354
-65 758 -59 1100 16 405 89 804 281 1135 545 125 100 342 322 444 454 277 360
462 780 536 1214 11 66 22 121 24 124 4 3 10 -59 21 -228 8 -110 -10 -371 -35
-530 -152 -946 -800 -1753 -1698 -2114 -449 -181 -983 -239 -1457 -160 -881
146 -1625 693 -2019 1485 -170 340 -255 647 -287 1029 -14 169 -2 540 16 518
1 -2 10 -50 20 -108z"/>
</g>
</svg>
